HIERARCHY
ROOT Hips
{
	OFFSET 0.000000 97.167313 0.000000
	CHANNELS 6 Xposition Yposition Zposition Xrotation Yrotation Zrotation
	JOINT Spine
	{
		OFFSET 0.000000 13.784798 0.064400
		CHANNELS 3 Xrotation Yrotation Zrotation
		JOINT Spine1
		{
			OFFSET 0.000000 12.037903 0.404700
			CHANNELS 3 Xrotation Yrotation Zrotation
			JOINT Spine2
			{
				OFFSET 0.000000 17.795601 0.420200
				CHANNELS 3 Xrotation Yrotation Zrotation
				JOINT Neck
				{
					OFFSET 0.000000 39.131302 11.954600
					CHANNELS 3 Xrotation Yrotation Zrotation
					JOINT Head
					{
						OFFSET 0.000000 14.456192 15.627699
						CHANNELS 3 Xrotation Yrotation Zrotation
						JOINT HeadTop_End
						{
							OFFSET 0.000000 15.703506 7.603401
							CHANNELS 3 Xrotation Yrotation Zrotation
							End Site
							{
								OFFSET 0.000000 17.447403 0.000000
							}
						}
					}
				}
				JOINT LeftShoulder
				{
					OFFSET 17.399500 24.608795 1.168800
					CHANNELS 3 Xrotation Yrotation Zrotation
					JOINT LeftArm
					{
						OFFSET 18.980635 5.765305 1.818600
						CHANNELS 3 Xrotation Yrotation Zrotation
						JOINT LeftForeArm
						{
							OFFSET 49.290169 0.000000 0.000000
							CHANNELS 3 Xrotation Yrotation Zrotation
							JOINT LeftHand
							{
								OFFSET 31.562012 0.000000 0.000000
								CHANNELS 3 Xrotation Yrotation Zrotation
								JOINT LeftHandThumb1
								{
									OFFSET 6.133995 -4.388519 7.076070
									CHANNELS 3 Xrotation Yrotation Zrotation
									JOINT LeftHandThumb2
									{
										OFFSET 6.037666 -3.485840 3.485847
										CHANNELS 3 Xrotation Yrotation Zrotation
										JOINT LeftHandThumb3
										{
											OFFSET 6.496506 -3.750763 3.750761
											CHANNELS 3 Xrotation Yrotation Zrotation
											JOINT LeftHandThumb4
											{
												OFFSET 5.616882 -3.242905 3.242910
												CHANNELS 3 Xrotation Yrotation Zrotation
												End Site
												{
													OFFSET -1.254608 7.132141 0.375429
												}
											}
										}
									}
								}
								JOINT LeftHandPinky1
								{
									OFFSET 18.920792 -0.453171 -11.426712
									CHANNELS 3 Xrotation Yrotation Zrotation
									JOINT LeftHandPinky2
									{
										OFFSET 4.919586 0.000000 0.000000
										CHANNELS 3 Xrotation Yrotation Zrotation
										JOINT LeftHandPinky3
										{
											OFFSET 5.233047 0.000000 0.000000
											CHANNELS 3 Xrotation Yrotation Zrotation
											JOINT LeftHandPinky4
											{
												OFFSET 5.571716 0.000000 0.000000
												CHANNELS 3 Xrotation Yrotation Zrotation
												End Site
												{
													OFFSET -3.459808 4.342407 -0.466164
												}
											}
										}
									}
								}
								JOINT LeftHandRing1
								{
									OFFSET 22.726120 -0.094986 -6.500475
									CHANNELS 3 Xrotation Yrotation Zrotation
									JOINT LeftHandRing2
									{
										OFFSET 6.408615 0.000000 0.000000
										CHANNELS 3 Xrotation Yrotation Zrotation
										JOINT LeftHandRing3
										{
											OFFSET 6.150223 0.000000 0.000000
											CHANNELS 3 Xrotation Yrotation Zrotation
											JOINT LeftHandRing4
											{
												OFFSET 6.145386 0.000000 0.000000
												CHANNELS 3 Xrotation Yrotation Zrotation
												End Site
												{
													OFFSET -3.671402 4.923981 -0.202372
												}
											}
										}
									}
								}
								JOINT LeftHandMiddle1
								{
									OFFSET 23.373947 0.000000 0.000001
									CHANNELS 3 Xrotation Yrotation Zrotation
									JOINT LeftHandMiddle2
									{
										OFFSET 6.996567 0.000000 0.000000
										CHANNELS 3 Xrotation Yrotation Zrotation
										JOINT LeftHandMiddle3
										{
											OFFSET 7.015945 0.000000 0.000000
											CHANNELS 3 Xrotation Yrotation Zrotation
											JOINT LeftHandMiddle4
											{
												OFFSET 7.721573 0.000000 0.000000
												CHANNELS 3 Xrotation Yrotation Zrotation
												End Site
												{
													OFFSET -4.651108 6.158463 0.251582
												}
											}
										}
									}
								}
								JOINT LeftHandIndex1
								{
									OFFSET 21.310577 -0.490082 6.209344
									CHANNELS 3 Xrotation Yrotation Zrotation
									JOINT LeftHandIndex2
									{
										OFFSET 7.536453 0.000000 0.000000
										CHANNELS 3 Xrotation Yrotation Zrotation
										JOINT LeftHandIndex3
										{
											OFFSET 7.512344 0.000000 0.000000
											CHANNELS 3 Xrotation Yrotation Zrotation
											JOINT LeftHandIndex4
											{
												OFFSET 10.212402 0.000000 0.000001
												CHANNELS 3 Xrotation Yrotation Zrotation
												End Site
												{
													OFFSET -5.180801 8.690506 1.388433
												}
											}
										}
									}
								}
							}
						}
					}
				}
				JOINT RightShoulder
				{
					OFFSET -17.399500 24.608795 1.168800
					CHANNELS 3 Xrotation Yrotation Zrotation
					JOINT RightArm
					{
						OFFSET -18.980635 5.765305 1.818600
						CHANNELS 3 Xrotation Yrotation Zrotation
						JOINT RightForeArm
						{
							OFFSET -49.290169 0.000000 0.000000
							CHANNELS 3 Xrotation Yrotation Zrotation
							JOINT RightHand
							{
								OFFSET -31.562012 0.000000 0.000000
								CHANNELS 3 Xrotation Yrotation Zrotation
								JOINT RightHandThumb1
								{
									OFFSET -6.133995 -4.388519 7.076070
									CHANNELS 3 Xrotation Yrotation Zrotation
									JOINT RightHandThumb2
									{
										OFFSET -6.037666 -3.485840 3.485847
										CHANNELS 3 Xrotation Yrotation Zrotation
										JOINT RightHandThumb3
										{
											OFFSET -6.496506 -3.750763 3.750761
											CHANNELS 3 Xrotation Yrotation Zrotation
											JOINT RightHandThumb4
											{
												OFFSET -5.616882 -3.242905 3.242910
												CHANNELS 3 Xrotation Yrotation Zrotation
												End Site
												{
													OFFSET 1.254608 7.132141 0.375429
												}
											}
										}
									}
								}
								JOINT RightHandIndex1
								{
									OFFSET -21.310577 -0.490082 6.209344
									CHANNELS 3 Xrotation Yrotation Zrotation
									JOINT RightHandIndex2
									{
										OFFSET -7.536453 0.000000 0.000000
										CHANNELS 3 Xrotation Yrotation Zrotation
										JOINT RightHandIndex3
										{
											OFFSET -7.512344 0.000000 0.000000
											CHANNELS 3 Xrotation Yrotation Zrotation
											JOINT RightHandIndex4
											{
												OFFSET -10.212402 0.000000 0.000001
												CHANNELS 3 Xrotation Yrotation Zrotation
												End Site
												{
													OFFSET 5.180801 8.690506 1.388433
												}
											}
										}
									}
								}
								JOINT RightHandMiddle1
								{
									OFFSET -23.373947 0.000000 0.000001
									CHANNELS 3 Xrotation Yrotation Zrotation
									JOINT RightHandMiddle2
									{
										OFFSET -6.996567 0.000000 0.000000
										CHANNELS 3 Xrotation Yrotation Zrotation
										JOINT RightHandMiddle3
										{
											OFFSET -7.015945 0.000000 0.000000
											CHANNELS 3 Xrotation Yrotation Zrotation
											JOINT RightHandMiddle4
											{
												OFFSET -7.721573 0.000000 0.000000
												CHANNELS 3 Xrotation Yrotation Zrotation
												End Site
												{
													OFFSET 4.651108 6.158463 0.251582
												}
											}
										}
									}
								}
								JOINT RightHandRing1
								{
									OFFSET -22.726120 -0.094986 -6.500475
									CHANNELS 3 Xrotation Yrotation Zrotation
									JOINT RightHandRing2
									{
										OFFSET -6.408615 0.000000 0.000000
										CHANNELS 3 Xrotation Yrotation Zrotation
										JOINT RightHandRing3
										{
											OFFSET -6.150223 0.000000 0.000000
											CHANNELS 3 Xrotation Yrotation Zrotation
											JOINT RightHandRing4
											{
												OFFSET -6.145386 0.000000 0.000000
												CHANNELS 3 Xrotation Yrotation Zrotation
												End Site
												{
													OFFSET 3.671402 4.923981 -0.202372
												}
											}
										}
									}
								}
								JOINT RightHandPinky1
								{
									OFFSET -18.920792 -0.453171 -11.426712
									CHANNELS 3 Xrotation Yrotation Zrotation
									JOINT RightHandPinky2
									{
										OFFSET -4.919586 0.000000 0.000000
										CHANNELS 3 Xrotation Yrotation Zrotation
										JOINT RightHandPinky3
										{
											OFFSET -5.233047 0.000000 0.000000
											CHANNELS 3 Xrotation Yrotation Zrotation
											JOINT RightHandPinky4
											{
												OFFSET -5.571716 0.000000 0.000000
												CHANNELS 3 Xrotation Yrotation Zrotation
												End Site
												{
													OFFSET 3.459808 4.342407 -0.466164
												}
											}
										}
									}
								}
							}
						}
					}
				}
			}
		}
	}
	JOINT LeftUpLeg
	{
		OFFSET 19.899099 -7.885101 -3.429500
		CHANNELS 3 Xrotation Yrotation Zrotation
		JOINT LeftLeg
		{
			OFFSET 1.745560 -36.997807 10.304700
			CHANNELS 3 Xrotation Yrotation Zrotation
			JOINT LeftFoot
			{
				OFFSET -1.745558 -29.803308 -13.615400
				CHANNELS 3 Xrotation Yrotation Zrotation
				JOINT LeftToeBase
				{
					OFFSET 1.181900 -18.539904 15.226099
					CHANNELS 3 Xrotation Yrotation Zrotation
					JOINT LeftToe_End
					{
						OFFSET -0.863701 1.402801 16.534700
						CHANNELS 3 Xrotation Yrotation Zrotation
						End Site
						{
							OFFSET 0.000000 16.616566 0.000000
						}
					}
				}
			}
		}
	}
	JOINT RightUpLeg
	{
		OFFSET -19.899099 -7.885101 -3.429500
		CHANNELS 3 Xrotation Yrotation Zrotation
		JOINT RightLeg
		{
			OFFSET -1.745560 -36.997807 10.304700
			CHANNELS 3 Xrotation Yrotation Zrotation
			JOINT RightFoot
			{
				OFFSET 1.745558 -29.803308 -13.615400
				CHANNELS 3 Xrotation Yrotation Zrotation
				JOINT RightToeBase
				{
					OFFSET -1.181900 -18.539904 15.226099
					CHANNELS 3 Xrotation Yrotation Zrotation
					JOINT RightToe_End
					{
						OFFSET 0.863701 1.402801 16.534700
						CHANNELS 3 Xrotation Yrotation Zrotation
						End Site
						{
							OFFSET 0.000000 16.616566 0.000000
						}
					}
				}
			}
		}
	}
}
MOTION
Frames: 4
Frame Time: 0.033333
-0.467498 72.008240 0.691642 -5.399175 -46.316629 -0.344603 9.440925 7.291883 -1.527991 2.187716 0.989899 -0.915631 2.202830 0.982772 -0.894152 0.084651 13.220559 4.538678 8.920925 20.138143 -4.130234 -0.000000 0.000000 -0.000001 1.117177 3.546343 -8.633310 -53.487013 4.935507 -51.502997 0.000112 -106.358080 0.000097 1.988597 -7.706146 -15.869258 -6.141212 -11.690800 -6.761679 9.914172 42.595512 3.409839 -0.422816 8.108083 27.509104 -0.000003 0.000002 -0.000004 -3.762416 9.063685 -45.253821 5.342513 5.829003 -85.005283 8.716847 5.103349 -119.369167 -0.000003 0.000001 -0.000007 0.469719 4.966829 -39.799458 8.181052 5.368603 -113.502991 3.200503 5.218119 -63.022989 -0.000001 0.000001 0.000003 -0.461467 3.841590 -39.722679 6.450749 5.820356 -95.892857 2.182889 4.561567 -51.127733 -0.000001 -0.000001 0.000004 0.255312 3.378205 -45.814348 5.654092 5.847766 -88.067448 2.162146 4.544806 -50.866382 -0.000001 0.000003 0.000002 3.036127 13.027198 -5.371408 -48.713708 27.172834 83.457057 0.000021 105.988287 -0.000020 -8.345365 17.548096 8.775667 -7.341102 13.749657 7.412326 9.855805 -44.489107 -3.903246 -0.115807 -14.513049 -28.973874 0.000000 -0.000001 0.000002 -0.124372 -2.384784 45.108861 4.500596 -4.654546 88.071130 1.723225 -3.618366 50.920126 -0.000001 -0.000001 -0.000001 -0.761616 -2.932909 39.031044 5.133886 -4.632765 95.881629 1.739739 -3.631699 51.181384 -0.000000 0.000001 -0.000006 0.154765 -4.068812 39.122661 6.509731 -4.273583 113.462870 2.549588 -4.153916 63.067324 -0.000002 -0.000001 -0.000005 -4.198878 -8.025502 44.637762 4.252903 -4.639628 85.014818 6.935974 -4.062643 119.322285 0.000002 0.000000 -0.000005 -33.569263 4.026729 22.749338 57.659296 -10.178561 2.632237 -21.484211 -5.744473 -18.032937 -1.594030 -0.000012 0.000004 -0.000000 -0.000002 -0.000000 -13.809802 -10.723384 -37.478949 58.013933 0.789562 -2.915658 -32.477573 -13.075829 26.173150 -0.012992 0.000028 -0.000004 -0.000000 0.000001 0.000000 
-0.441611 72.240410 -0.939870 -3.869849 -46.624982 0.027006 9.454869 7.002564 -2.369303 2.348950 0.861946 -0.815335 2.365768 0.868918 -0.787981 -0.689834 13.048496 4.880514 6.900617 20.403291 -3.184073 -0.000001 -0.000000 -0.000000 1.101413 3.101529 -8.164113 -53.514822 5.682285 -50.636851 0.000045 -107.788636 0.000026 1.988595 -7.706146 -15.869258 -6.141211 -11.690799 -6.761682 9.914172 42.595505 3.409842 -0.422821 8.108080 27.509111 -0.000001 0.000006 -0.000001 -3.762414 9.063682 -45.253818 5.342513 5.829006 -85.005283 8.716845 5.103354 -119.369167 -0.000001 0.000000 -0.000006 0.469720 4.966830 -39.799444 8.181053 5.368607 -113.502991 3.200502 5.218117 -63.022982 -0.000002 0.000001 0.000003 -0.461471 3.841595 -39.722683 6.450750 5.820353 -95.892857 2.182886 4.561570 -51.127736 0.000000 -0.000002 0.000001 0.255310 3.378209 -45.814344 5.654101 5.847763 -88.067448 2.162141 4.544806 -50.866379 -0.000002 0.000001 0.000001 2.718641 11.781774 -5.984437 -49.235586 26.724877 84.508305 0.000075 106.273133 -0.000039 -9.285440 17.809932 8.288493 -7.341100 13.749654 7.412327 9.855812 -44.489096 -3.903252 -0.115809 -14.513052 -28.973871 0.000000 -0.000003 0.000004 -0.124375 -2.384788 45.108857 4.500591 -4.654544 88.071130 1.723224 -3.618369 50.920126 -0.000000 -0.000002 0.000004 -0.761619 -2.932917 39.031048 5.133889 -4.632758 95.881629 1.739742 -3.631701 51.181377 0.000001 0.000000 -0.000008 0.154764 -4.068815 39.122661 6.509733 -4.273584 113.462870 2.549589 -4.153918 63.067330 0.000001 0.000001 -0.000003 -4.198881 -8.025506 44.637762 4.252906 -4.639629 85.014818 6.935975 -4.062647 119.322285 0.000001 0.000000 0.000001 -35.701173 3.473815 24.228269 56.272368 -10.424217 3.176253 -19.239232 -5.709492 -19.388981 -1.594491 -0.000015 -0.000007 -0.000000 -0.000002 -0.000000 -16.593840 -10.291332 -36.740827 57.916097 2.228974 -2.841090 -30.448007 -11.720920 26.506965 -4.727439 0.000008 -0.000007 0.000000 -0.000001 -0.000000 
-0.323737 72.516968 -3.057753 -2.899662 -46.917707 0.263437 9.503191 6.683860 -2.911957 2.516780 0.775027 -0.913055 2.535581 0.791119 -0.879284 -0.956462 13.075727 4.575281 6.074553 20.359677 -2.600577 -0.000000 -0.000000 -0.000000 1.521874 1.738517 -9.424978 -53.392972 6.614412 -49.399504 0.000098 -110.471077 0.000094 1.988597 -7.706146 -15.869256 -6.141213 -11.690796 -6.761682 9.914172 42.595512 3.409843 -0.422816 8.108083 27.509108 0.000002 0.000001 -0.000004 -3.762419 9.063689 -45.253814 5.342513 5.829005 -85.005290 8.716849 5.103352 -119.369167 0.000002 -0.000002 0.000005 0.469719 4.966831 -39.799451 8.181054 5.368605 -113.502991 3.200502 5.218118 -63.022989 0.000000 -0.000000 0.000005 -0.461470 3.841593 -39.722679 6.450751 5.820352 -95.892857 2.182883 4.561567 -51.127733 0.000000 -0.000000 0.000004 0.255308 3.378206 -45.814341 5.654098 5.847764 -88.067448 2.162145 4.544807 -50.866386 -0.000001 0.000001 0.000001 1.795185 11.106529 -9.179838 -49.233038 24.561234 86.807517 -0.000032 106.059628 0.000028 -8.962624 17.994429 7.910673 -7.341103 13.749650 7.412324 9.855808 -44.489103 -3.903250 -0.115811 -14.513051 -28.973874 0.000001 0.000002 0.000002 -0.124377 -2.384791 45.108861 4.500594 -4.654542 88.071123 1.723226 -3.618367 50.920119 -0.000001 -0.000001 -0.000002 -0.761621 -2.932919 39.031048 5.133888 -4.632768 95.881629 1.739743 -3.631700 51.181381 0.000001 -0.000001 -0.000006 0.154762 -4.068821 39.122661 6.509730 -4.273586 113.462870 2.549589 -4.153919 63.067324 0.000001 0.000000 -0.000007 -4.198878 -8.025505 44.637762 4.252914 -4.639625 85.014818 6.935973 -4.062650 119.322285 -0.000001 -0.000001 0.000000 -37.779883 3.508476 25.708369 54.213824 -11.111165 3.697016 -16.170024 -5.923382 -20.593965 -1.594928 -0.000007 0.000001 -0.000000 0.000000 0.000000 -19.279688 -8.979077 -36.539149 58.509613 3.305828 -1.888372 -27.362634 -9.517566 27.330333 -7.949506 0.000015 0.000001 0.000000 0.000001 0.000000 
-0.070477 72.950752 -5.274830 -2.725835 -46.753826 0.299805 9.678504 6.493277 -3.127633 2.657816 0.731209 -1.197264 2.678451 0.752858 -1.157302 -0.840220 13.163634 3.948667 6.492060 20.044923 -2.612366 -0.000001 0.000000 -0.000000 1.897037 0.864296 -10.882735 -52.522273 7.203954 -49.440041 -0.000064 -112.654709 -0.000107 1.988595 -7.706146 -15.869258 -6.141214 -11.690792 -6.761682 9.914170 42.595512 3.409841 -0.422814 8.108077 27.509111 0.000002 0.000001 -0.000002 -3.762417 9.063689 -45.253814 5.342515 5.829008 -85.005290 8.716843 5.103352 -119.369181 0.000000 -0.000001 0.000001 0.469718 4.966834 -39.799447 8.181054 5.368606 -113.502991 3.200504 5.218119 -63.022982 -0.000000 -0.000000 0.000005 -0.461470 3.841595 -39.722676 6.450750 5.820354 -95.892857 2.182883 4.561567 -51.127733 0.000001 -0.000002 0.000006 0.255310 3.378210 -45.814341 5.654095 5.847763 -88.067448 2.162144 4.544808 -50.866382 -0.000001 0.000003 -0.000001 1.056648 11.125499 -11.952572 -48.450722 22.547851 87.428020 0.000019 105.857195 0.000011 -8.124309 18.195151 7.693866 -7.341098 13.749663 7.412321 9.855811 -44.489100 -3.903249 -0.115805 -14.513049 -28.973874 0.000001 0.000001 0.000001 -0.124371 -2.384783 45.108857 4.500589 -4.654546 88.071123 1.723225 -3.618368 50.920126 -0.000000 -0.000003 -0.000002 -0.761615 -2.932910 39.031044 5.133887 -4.632762 95.881622 1.739742 -3.631701 51.181384 0.000002 0.000000 -0.000008 0.154767 -4.068813 39.122658 6.509732 -4.273585 113.462870 2.549589 -4.153916 63.067324 -0.000000 -0.000001 -0.000005 -4.198874 -8.025497 44.637769 4.252910 -4.639626 85.014825 6.935971 -4.062648 119.322285 0.000003 0.000000 0.000000 -39.019259 3.396460 26.168295 51.426837 -11.346907 4.470514 -12.645901 -6.270421 -22.058620 -1.595379 -0.000009 0.000000 -0.000000 -0.000000 0.000000 -20.971510 -7.866602 -36.567750 60.219633 3.103184 -1.029929 -23.954962 -8.026402 26.238303 -6.946231 -0.002998 0.649193 -0.000000 -0.000000 0.000000 
